<svg xmlns="http://www.w3.org/2000/svg" width="60" height="60" viewBox="0 0 60 60">
  <g id="javascript" transform="translate(-715 -1115)">
    <path id="Caminho_4" data-name="Caminho 4" d="M30,0A30,30,0,1,1,0,30,30,30,0,0,1,30,0Z" transform="translate(715 1115)"/>
    <path id="icons8-javascript_1_" data-name="icons8-javascript (1)" d="M27,36.184c0,4-2.344,5.816-5.766,5.816A7.021,7.021,0,0,1,15,38l3.145-1.9A3.274,3.274,0,0,0,21,38c1.27,0,2-.5,2-2.426V23h4ZM35.676,42A6.966,6.966,0,0,1,29,38l3-2c.816,1.336,1.707,2.613,3.59,2.613,1.582,0,2.41-.789,2.41-1.883,0-1.3-.859-1.77-2.6-2.531l-.953-.41c-2.754-1.172-4.586-2.641-4.586-5.75,0-2.859,2.184-5.039,5.59-5.039a5.639,5.639,0,0,1,5.426,3.055l-2.969,1.91a2.594,2.594,0,0,0-2.457-1.637,1.66,1.66,0,0,0-1.824,1.637c0,1.145.707,1.605,2.344,2.316l.953.41C40.172,32.078,42,33.5,42,36.684,42,40.117,39.3,42,35.676,42Z" transform="translate(717 1113)" fill="#fff"/>
  </g>
</svg>
