<svg xmlns="http://www.w3.org/2000/svg" width="60" height="60" viewBox="0 0 60 60">
  <g id="react" transform="translate(-469 -1039)">
    <path id="Caminho_10" data-name="Caminho 10" d="M30,0A30,30,0,1,1,0,30,30,30,0,0,1,30,0Z" transform="translate(469 1039)"/>
    <g id="icons8-reagir" transform="translate(468 1036.004)">
      <circle id="Elipse_2" data-name="Elipse 2" cx="5" cy="5" r="5" transform="translate(26 27.947)" fill="#fff"/>
      <path id="Caminho_7" data-name="Caminho 7" d="M47,52a5,5,0,1,1,5-5A5.006,5.006,0,0,1,47,52Zm0-8.75A3.75,3.75,0,1,0,50.75,47,3.754,3.754,0,0,0,47,43.25Z" transform="translate(-16 -14.053)" fill="#fff"/>
      <path id="Caminho_8" data-name="Caminho 8" d="M50.5,32.948c0-2.719-3.279-5.072-8.366-6.473,1.308-5.106.905-9.121-1.432-10.484a4.238,4.238,0,0,0-3.324-.293A15.641,15.641,0,0,0,31,19.946,15.647,15.647,0,0,0,24.622,15.7a4.236,4.236,0,0,0-3.324.293c-2.337,1.363-2.74,5.377-1.432,10.484-5.087,1.4-8.366,3.754-8.366,6.473s3.279,5.072,8.366,6.473c-1.308,5.106-.905,9.121,1.432,10.484a3.709,3.709,0,0,0,1.9.493,5.512,5.512,0,0,0,1.421-.2A15.647,15.647,0,0,0,31,45.95,15.647,15.647,0,0,0,37.378,50.2a5.512,5.512,0,0,0,1.421.2,3.709,3.709,0,0,0,1.9-.493c2.337-1.363,2.739-5.378,1.432-10.484C47.221,38.02,50.5,35.667,50.5,32.948ZM37.771,17.163a4,4,0,0,1,1.021-.147,2.23,2.23,0,0,1,1.143.285c1.566.913,1.886,4.258.719,8.806a40.518,40.518,0,0,0-5.224-.8,41.183,41.183,0,0,0-3.377-4.263A14.242,14.242,0,0,1,37.771,17.163Zm-1.324,18.97c-.6,1.045-1.226,2.046-1.87,3-1.145.085-2.338.133-3.577.133s-2.432-.047-3.576-.133c-.645-.958-1.273-1.959-1.87-3q-.926-1.62-1.668-3.185.745-1.561,1.668-3.186c.6-1.045,1.226-2.046,1.871-3,1.144-.085,2.337-.133,3.576-.133s2.432.047,3.576.133c.645.958,1.273,1.959,1.871,3q.926,1.62,1.668,3.186Q37.371,34.509,36.447,36.133Zm2.476-1.393a38.023,38.023,0,0,1,1.315,3.582,37.712,37.712,0,0,1-3.725.629c.426-.671.847-1.356,1.253-2.066S38.561,35.452,38.924,34.74ZM31,43.749a38.871,38.871,0,0,1-2.464-3.024c.806.039,1.627.062,2.464.062s1.657-.023,2.464-.062C32.656,41.821,31.829,42.834,31,43.749Zm-5.515-4.8a37.737,37.737,0,0,1-3.725-.629,37.972,37.972,0,0,1,1.315-3.582q.544,1.067,1.157,2.144C24.639,37.595,25.059,38.281,25.485,38.951Zm-2.409-7.8a37.845,37.845,0,0,1-1.315-3.583,37.722,37.722,0,0,1,3.725-.629c-.427.671-.847,1.357-1.253,2.067S23.439,30.444,23.076,31.155ZM31,22.147a38.871,38.871,0,0,1,2.464,3.024c-.806-.039-1.627-.062-2.464-.062s-1.657.023-2.464.062A38.956,38.956,0,0,1,31,22.147Zm6.767,6.864c-.406-.71-.826-1.4-1.253-2.067a37.747,37.747,0,0,1,3.725.629,38.038,38.038,0,0,1-1.315,3.583C38.561,30.444,38.178,29.728,37.767,29.011ZM22.064,17.3a2.23,2.23,0,0,1,1.143-.285,4,4,0,0,1,1.021.147,14.24,14.24,0,0,1,5.718,3.879,41.237,41.237,0,0,0-3.377,4.263,40.5,40.5,0,0,0-5.224.8C20.179,21.559,20.5,18.214,22.064,17.3ZM13.019,32.948c0-1.819,2.736-3.763,7.261-5.007a40.806,40.806,0,0,0,1.928,5.007,40.806,40.806,0,0,0-1.928,5.007C15.755,36.71,13.019,34.766,13.019,32.948ZM24.229,48.732a2.8,2.8,0,0,1-2.164-.137c-1.566-.913-1.885-4.258-.719-8.806a40.509,40.509,0,0,0,5.223.8,41.245,41.245,0,0,0,3.377,4.264A14.239,14.239,0,0,1,24.229,48.732Zm15.707-.137a2.792,2.792,0,0,1-2.164.137,14.24,14.24,0,0,1-5.718-3.879,41.191,41.191,0,0,0,3.377-4.264,40.5,40.5,0,0,0,5.223-.8C41.821,44.336,41.5,47.681,39.936,48.595Zm1.784-10.64a40.806,40.806,0,0,0-1.928-5.007A40.837,40.837,0,0,0,41.72,27.94c4.525,1.245,7.261,3.189,7.261,5.007S46.245,36.71,41.72,37.955Z" fill="#fff"/>
      <path id="Caminho_9" data-name="Caminho 9" d="M23.1,50.9a4.008,4.008,0,0,1-2.052-.535c-2.375-1.387-2.966-5.27-1.63-10.672C14.064,38.167,11,35.716,11,32.947s3.064-5.22,8.418-6.743c-1.335-5.4-.745-9.285,1.63-10.672a4.522,4.522,0,0,1,3.561-.323A15.737,15.737,0,0,1,31,19.4a15.744,15.744,0,0,1,6.391-4.194,4.532,4.532,0,0,1,3.561.323c2.375,1.387,2.965,5.27,1.63,10.672C47.936,27.727,51,30.178,51,32.947s-3.064,5.22-8.418,6.743c1.335,5.4.746,9.285-1.63,10.672a4.551,4.551,0,0,1-3.561.323A15.738,15.738,0,0,1,31,46.491a15.735,15.735,0,0,1-6.391,4.194A5.85,5.85,0,0,1,23.1,50.9Zm0-35.386a3.5,3.5,0,0,0-1.8.465c-2.166,1.265-2.664,5.132-1.331,10.345a.257.257,0,0,1-.181.311c-5.186,1.43-8.282,3.791-8.282,6.316s3.1,4.886,8.283,6.316a.257.257,0,0,1,.181.311c-1.333,5.213-.836,9.081,1.33,10.345a3.509,3.509,0,0,0,1.794.465h0a5.345,5.345,0,0,0,1.373-.194,15.546,15.546,0,0,0,6.343-4.241.257.257,0,0,1,.362,0,15.556,15.556,0,0,0,6.343,4.241,4.058,4.058,0,0,0,3.17-.271c2.166-1.265,2.664-5.132,1.33-10.345a.257.257,0,0,1,.181-.311c5.186-1.43,8.283-3.791,8.283-6.316s-3.1-4.886-8.283-6.316a.257.257,0,0,1-.181-.311c1.333-5.213.835-9.081-1.331-10.345a4.041,4.041,0,0,0-3.17-.271,15.549,15.549,0,0,0-6.343,4.241.257.257,0,0,1-.362,0A15.549,15.549,0,0,0,24.475,15.7,5.308,5.308,0,0,0,23.1,15.511ZM38.89,49.357a4.278,4.278,0,0,1-1.1-.157,14.581,14.581,0,0,1-5.9-4,.257.257,0,0,1-.008-.354,41.5,41.5,0,0,0,3.4-4.3.255.255,0,0,1,.188-.109,40.71,40.71,0,0,0,5.256-.807.257.257,0,0,1,.3.187c1.2,4.678.873,8.209-.847,9.214h0A2.507,2.507,0,0,1,38.89,49.357Zm-6.469-4.348a13.788,13.788,0,0,0,5.5,3.695,2.587,2.587,0,0,0,2-.113h0c1.464-.855,1.722-4.14.67-8.4a41.428,41.428,0,0,1-4.959.752A42.184,42.184,0,0,1,32.421,45.009ZM23.11,49.357a2.512,2.512,0,0,1-1.286-.323c-1.721-1.005-2.046-4.536-.847-9.214a.259.259,0,0,1,.3-.187,40.683,40.683,0,0,0,5.256.807.256.256,0,0,1,.188.109,41.5,41.5,0,0,0,3.4,4.3.256.256,0,0,1-.008.354,14.588,14.588,0,0,1-5.9,4h0A4.31,4.31,0,0,1,23.11,49.357Zm-1.7-9.169c-1.052,4.263-.794,7.548.67,8.4a2.589,2.589,0,0,0,2,.113h0a13.793,13.793,0,0,0,5.5-3.695,42.26,42.26,0,0,1-3.207-4.069A41.437,41.437,0,0,1,21.412,40.187ZM31,44.155a.257.257,0,0,1-.19-.085c-.853-.943-1.7-1.982-2.511-3.086a.257.257,0,0,1-.019-.273.249.249,0,0,1,.238-.135c1.7.083,3.269.083,4.964,0a.25.25,0,0,1,.238.135.256.256,0,0,1-.019.273c-.813,1.1-1.658,2.143-2.511,3.086A.257.257,0,0,1,31,44.155Zm-1.966-3.042c.642.849,1.3,1.654,1.966,2.4.665-.748,1.324-1.553,1.966-2.4C31.626,41.164,30.374,41.164,29.034,41.113ZM31,39.614c-1.215,0-2.439-.045-3.641-.135a.255.255,0,0,1-.194-.113c-.686-1.02-1.326-2.05-1.9-3.062-.605-1.061-1.176-2.153-1.7-3.247a.256.256,0,0,1,0-.221c.521-1.094,1.092-2.187,1.7-3.247.577-1.01,1.217-2.041,1.9-3.062a.258.258,0,0,1,.194-.113,49.281,49.281,0,0,1,7.28,0,.255.255,0,0,1,.194.113c.687,1.022,1.327,2.052,1.9,3.062.605,1.061,1.176,2.153,1.7,3.247a.256.256,0,0,1,0,.221c-.521,1.094-1.092,2.187-1.7,3.247h0c-.577,1.011-1.218,2.042-1.9,3.062a.258.258,0,0,1-.194.113C33.439,39.568,32.215,39.614,31,39.614Zm-3.478-.637a48.889,48.889,0,0,0,6.955,0c.653-.976,1.263-1.96,1.815-2.927.578-1.014,1.126-2.057,1.627-3.1-.5-1.046-1.049-2.089-1.627-3.1-.551-.966-1.162-1.95-1.815-2.927a48.889,48.889,0,0,0-6.955,0c-.653.977-1.264,1.962-1.815,2.927-.578,1.014-1.126,2.057-1.627,3.1.5,1.046,1.049,2.089,1.627,3.1C26.259,37.017,26.869,38,27.522,38.976Zm9.062.315a.256.256,0,0,1-.216-.394c.476-.749.889-1.431,1.262-2.085.392-.686.784-1.414,1.166-2.164a.261.261,0,0,1,.237-.139.256.256,0,0,1,.227.156A38.884,38.884,0,0,1,40.6,38.322a.256.256,0,0,1-.189.326,38.36,38.36,0,0,1-3.8.642ZM39,35.373c-.3.584-.614,1.151-.924,1.693-.3.524-.624,1.066-.985,1.646,1.01-.134,1.995-.3,2.937-.506C39.731,37.276,39.386,36.326,39,35.373ZM25.416,39.291l-.031,0c-1.313-.157-2.591-.373-3.8-.643a.256.256,0,0,1-.189-.326,38.831,38.831,0,0,1,1.341-3.656.257.257,0,0,1,.227-.156.252.252,0,0,1,.237.139c.382.749.774,1.477,1.166,2.164.373.653.786,1.335,1.262,2.085a.257.257,0,0,1-.216.394Zm-3.443-1.085c.942.2,1.927.372,2.937.506-.362-.579-.686-1.122-.985-1.646-.31-.542-.619-1.11-.924-1.693C22.614,36.326,22.269,37.276,21.974,38.206Zm19.88.075a.256.256,0,0,1-.245-.182,41.23,41.23,0,0,0-1.939-5.045.255.255,0,0,1,0-.214,41.3,41.3,0,0,0,1.94-5.046.259.259,0,0,1,.313-.172c4.65,1.282,7.539,3.322,7.539,5.325s-2.889,4.043-7.54,5.325A.259.259,0,0,1,41.854,38.281Zm-1.67-5.334a41.847,41.847,0,0,1,1.841,4.763c4.215-1.2,6.924-3.059,6.924-4.763s-2.709-3.562-6.924-4.763A41.965,41.965,0,0,1,40.184,32.947ZM20.146,38.281a.263.263,0,0,1-.068-.009c-4.65-1.282-7.539-3.322-7.539-5.325s2.889-4.043,7.539-5.325a.258.258,0,0,1,.313.172,41.3,41.3,0,0,0,1.94,5.046.255.255,0,0,1,0,.214A41.211,41.211,0,0,0,20.392,38.1.257.257,0,0,1,20.146,38.281Zm-.171-10.1c-4.215,1.2-6.924,3.059-6.924,4.763s2.709,3.562,6.924,4.763a41.981,41.981,0,0,1,1.841-4.763A41.966,41.966,0,0,1,19.975,28.184Zm19.048,3.2a.257.257,0,0,1-.229-.14c-.388-.763-.77-1.471-1.165-2.164h0c-.372-.652-.785-1.334-1.262-2.085a.257.257,0,0,1,.247-.392c1.314.157,2.592.373,3.8.642a.256.256,0,0,1,.189.326,38.91,38.91,0,0,1-1.341,3.657.257.257,0,0,1-.227.156Zm-.949-2.558c.313.549.618,1.107.924,1.693.388-.952.732-1.9,1.028-2.833-.942-.2-1.927-.372-2.937-.506.363.581.687,1.123.986,1.646Zm-15.1,2.558h-.009a.256.256,0,0,1-.227-.156A38.911,38.911,0,0,1,21.4,27.573a.256.256,0,0,1,.189-.326,38.345,38.345,0,0,1,3.8-.642.257.257,0,0,1,.247.392c-.477.751-.89,1.433-1.262,2.085-.4.693-.777,1.4-1.165,2.164A.259.259,0,0,1,22.977,31.386Zm-1-3.7c.3.931.641,1.882,1.028,2.833.306-.587.61-1.145.924-1.693.3-.524.623-1.066.985-1.646C23.9,27.316,22.916,27.486,21.974,27.688Zm18.8-1.421a.264.264,0,0,1-.056-.006,40.691,40.691,0,0,0-5.256-.807.256.256,0,0,1-.188-.109,41.453,41.453,0,0,0-3.4-4.3.256.256,0,0,1,.008-.354,14.577,14.577,0,0,1,5.9-4h0a3.071,3.071,0,0,1,2.387.165c1.721,1.005,2.046,4.536.848,9.214A.257.257,0,0,1,40.776,26.267Zm-5.148-1.313a41.436,41.436,0,0,1,4.959.752c1.052-4.263.794-7.548-.67-8.4a2.591,2.591,0,0,0-2-.113,13.791,13.791,0,0,0-5.5,3.7A41.986,41.986,0,0,1,35.628,24.954Zm-14.4,1.313a.257.257,0,0,1-.248-.193c-1.2-4.678-.873-8.209.847-9.214h0A3.07,3.07,0,0,1,24.21,16.7a14.579,14.579,0,0,1,5.9,4,.257.257,0,0,1,.008.354,41.507,41.507,0,0,0-3.4,4.3.255.255,0,0,1-.188.109,40.718,40.718,0,0,0-5.256.807A.256.256,0,0,1,21.224,26.267Zm.858-8.964c-1.464.855-1.722,4.141-.67,8.4a41.437,41.437,0,0,1,4.959-.752,42.214,42.214,0,0,1,3.207-4.069,13.787,13.787,0,0,0-5.5-3.7,2.592,2.592,0,0,0-1.995.113Zm11.412,8.014h-.012c-1.7-.083-3.268-.083-4.964,0a.256.256,0,0,1-.219-.408c.814-1.105,1.658-2.144,2.511-3.086a.265.265,0,0,1,.381,0c.852.942,1.7,1.981,2.511,3.086a.256.256,0,0,1-.207.408ZM31,24.742c.637,0,1.3.013,1.966.039-.642-.85-1.3-1.655-1.966-2.4-.664.747-1.324,1.552-1.966,2.4C29.7,24.755,30.363,24.742,31,24.742Z" fill="#fff"/>
    </g>
  </g>
</svg>
