<svg xmlns="http://www.w3.org/2000/svg" width="60" height="60" viewBox="0 0 60 60">
  <g id="sass" transform="translate(-539 -1029)">
    <path id="Caminho_6" data-name="Caminho 6" d="M30,0A30,30,0,1,1,0,30,30,30,0,0,1,30,0Z" transform="translate(539 1029)"/>
    <path id="icons8-sass" d="M38.725,22.4a9.245,9.245,0,0,0-4.077.949,8.5,8.5,0,0,1-.912-2.112,5.642,5.642,0,0,1-.079-1.775,15.223,15.223,0,0,1,.533-1.912c-.006-.081-.1-.467-1.006-.473s-1.683.174-1.775.415a8.9,8.9,0,0,0-.375,1.341,32.269,32.269,0,0,1-2.748,5.291,5.494,5.494,0,0,1-.623-1.544,5.642,5.642,0,0,1-.079-1.775,15.224,15.224,0,0,1,.533-1.912c-.006-.081-.1-.467-1.006-.473s-1.683.174-1.775.415-.189.8-.375,1.341-2.383,5.435-2.957,6.7c-.293.645-.548,1.165-.728,1.52l0,0-.03.064c-.154.3-.246.469-.246.469a.008.008,0,0,1,0,.006c-.122.221-.253.428-.319.428a2.827,2.827,0,0,1,.021-1.4c.326-1.7,1.113-4.345,1.1-4.435,0-.047.146-.508-.512-.749a.817.817,0,0,0-.927.158c-.056,0-.1.139-.1.139s.713-2.977-1.36-2.977c-1.3,0-3.092,1.418-3.977,2.7-.559.3-1.754.957-3.021,1.653l-1.456.8c-.032-.036-.064-.071-.1-.107-2.514-2.683-7.163-4.58-6.964-8.185.071-1.311.527-4.763,8.93-8.951,6.883-3.43,12.4-2.486,13.347-.394,1.36,2.989-2.945,8.544-10.093,9.345-2.724.306-4.157-.75-4.514-1.143-.375-.415-.432-.433-.572-.355-.229.126-.084.492,0,.709a4.238,4.238,0,0,0,2.583,2.03,13.691,13.691,0,0,0,8.379-.827c4.332-1.675,7.715-6.336,6.72-10.232-1.011-3.962-7.579-5.264-13.8-3.056A31.132,31.132,0,0,0,3.79,10.161C.366,13.364-.182,16.153.044,17.318c.8,4.139,6.5,6.835,8.79,8.833l-.315.174c-1.146.567-5.5,2.842-6.583,5.247-1.234,2.728.2,4.685,1.143,4.949a7.019,7.019,0,0,0,7.563-3.066,7.6,7.6,0,0,0,.677-6.988l-.028-.053.9-.529c.583-.341,1.156-.662,1.651-.932a11.079,11.079,0,0,0-.587,2.992,6.245,6.245,0,0,0,1.345,4.336,1.468,1.468,0,0,0,1.084.355c.966,0,1.407-.8,1.893-1.754.595-1.167,1.124-2.523,1.124-2.523s-.662,3.668,1.144,3.668c.659,0,1.321-.854,1.615-1.289a.011.011,0,0,0,0,.008l.051-.084c.068-.105.107-.171.107-.171s0-.008,0-.019c.265-.46.852-1.507,1.732-3.234,1.137-2.233,2.227-5.028,2.227-5.028a14.981,14.981,0,0,0,.433,1.814,17.165,17.165,0,0,0,.938,2.1c-.265.366-.426.576-.426.576a.061.061,0,0,1,0,.011c-.21.28-.447.582-.694.876a25.392,25.392,0,0,0-2.109,2.642.721.721,0,0,0,.2.966,1.777,1.777,0,0,0,1.105.178A5.1,5.1,0,0,0,26.68,31a5.53,5.53,0,0,0,1.422-.749,3.166,3.166,0,0,0,1.36-2.8,5.685,5.685,0,0,0-.516-1.977c.081-.114.159-.231.24-.349a37.483,37.483,0,0,0,2.465-4.259,14.981,14.981,0,0,0,.433,1.814,12.513,12.513,0,0,0,.8,1.809,7.727,7.727,0,0,0-2.4,3.1c-.52,1.5-.113,2.173.651,2.326a2.348,2.348,0,0,0,1.2-.244,5.581,5.581,0,0,0,1.52-.78,3.41,3.41,0,0,0,1.675-2.78,5.172,5.172,0,0,0-.381-1.645,8.6,8.6,0,0,1,4.362-.5c3.914.458,4.681,2.9,4.535,3.923a2.578,2.578,0,0,1-1.242,1.754c-.274.169-.358.229-.336.355.034.184.159.176.394.137A3.051,3.051,0,0,0,45,27.414C45.089,25.014,42.792,22.382,38.725,22.4ZM8.561,32.573c-1.3,1.415-3.107,1.949-3.884,1.5C3.839,33.586,4.171,31.5,5.762,30a20.7,20.7,0,0,1,3.052-2.276c.189-.114.467-.281.8-.482l.088-.049,0,0,.2-.12A5.628,5.628,0,0,1,8.561,32.573ZM18,26.153c-.452,1.1-1.4,3.917-1.972,3.765-.493-.129-.794-2.27-.1-4.377a9.746,9.746,0,0,1,1.538-2.82c.707-.792,1.486-1.051,1.675-.73C19.39,22.4,18.287,25.464,18,26.153Zm7.8,3.724c-.191.1-.368.163-.448.114-.06-.036.079-.167.079-.167s.976-1.051,1.36-1.527c.223-.278.482-.608.765-.977,0,.038,0,.073,0,.109A3.265,3.265,0,0,1,25.806,29.877Zm6.011-1.371c-.143-.1-.118-.43.351-1.452A5.482,5.482,0,0,1,33.5,25.329a2.455,2.455,0,0,1-1.687,3.176Z" transform="translate(547 1038.974)" fill="#fff"/>
  </g>
</svg>
